<?xml version="1.0" encoding="UTF-8"?>
<svg width="24px" height="24px" viewBox="0 0 24 24" version="1.1" xmlns="http://www.w3.org/2000/svg">
    <path d="M12,23.1l4.4-13.6H7.6L12,23.1z" fill="white"/>
    <path d="M12,23.1L7.6,9.5H1.4L12,23.1z" fill="white"/>
    <path d="M1.4,9.5L0,13.6c-0.1,0.3,0,0.7,0.3,0.9L12,23.1L1.4,9.5z" fill="white"/>
    <path d="M1.4,9.5h6.2L4.9,2.8c-0.1-0.4-0.8-0.4-0.9,0L1.4,9.5z" fill="white"/>
    <path d="M12,23.1l4.4-13.6h6.2L12,23.1z" fill="white"/>
    <path d="M22.6,9.5l1.4,4.1c0.1,0.3,0,0.7-0.3,0.9L12,23.1L22.6,9.5z" fill="white"/>
    <path d="M22.6,9.5h-6.2l2.7-6.7c0.1-0.4,0.8-0.4,0.9,0L22.6,9.5z" fill="white"/>
</svg>
